<svg id="visual" viewBox="0 0 960 300" width="960" height="300" xmlns="http://www.w3.org/2000/svg" xmlns:xlink="http://www.w3.org/1999/xlink" version="1.1"><path d="M0 223L22.8 226.3C45.7 229.7 91.3 236.3 137 230.5C182.7 224.7 228.3 206.3 274 200.3C319.7 194.3 365.3 200.7 411.2 206.8C457 213 503 219 548.8 224.5C594.7 230 640.3 235 686 229C731.7 223 777.3 206 823 197.3C868.7 188.7 914.3 188.3 937.2 188.2L960 188L960 301L937.2 301C914.3 301 868.7 301 823 301C777.3 301 731.7 301 686 301C640.3 301 594.7 301 548.8 301C503 301 457 301 411.2 301C365.3 301 319.7 301 274 301C228.3 301 182.7 301 137 301C91.3 301 45.7 301 22.8 301L0 301Z" fill="#0066FF" stroke-linecap="round" stroke-linejoin="miter"></path></svg>